<?xml version="1.0" encoding="utf-8"?>
<!-- Generator: Adobe Illustrator 28.4.1, SVG Export Plug-In . SVG Version: 6.00 Build 0)  -->
<svg version="1.1" id="Warstwa_1" xmlns="http://www.w3.org/2000/svg" xmlns:xlink="http://www.w3.org/1999/xlink" x="0px" y="0px"
	 viewBox="0 0 512 512" style="enable-background:new 0 0 512 512;" xml:space="preserve">
<style type="text/css">
	.st0{fill:#1E2251;}
	.st1{fill:#696B8B;}
	.st2{fill:#16A9E1;}
	.st3{fill:#17AAE1;}
	.st4{fill:#18AAE1;}
	.st5{fill:#24537D;}
	.st6{fill:#246F9B;}
	.st7{fill:#245781;}
	.st8{fill:#235A84;}
	.st9{fill:#247CAA;}
	.st10{fill:#2478A5;}
	.st11{fill:#24739F;}
	.st12{fill:#20315D;}
	.st13{fill:#246B96;}
	.st14{fill:#1F2755;}
	.st15{fill:#1F2E5A;}
	.st16{fill:#204670;}
	.st17{fill:#235079;}
	.st18{fill:#203B65;}
	.st19{fill:#235E88;}
	.st20{fill:#2089B9;}
	.st21{fill:#1F90C1;}
	.st22{fill:#1F3D67;}
	.st23{fill:#213863;}
	.st24{fill:#19A0D5;}
	.st25{fill:#234E77;}
	.st26{fill:#2475A1;}
	.st27{fill:#1F2B58;}
	.st28{fill:#202E5A;}
	.st29{fill:#1E436C;}
	.st30{fill:#213560;}
	.st31{fill:#208DBE;}
	.st32{fill:#1F2B57;}
	.st33{fill:#203B66;}
	.st34{fill:#1E96C9;}
	.st35{fill:#203862;}
	.st36{fill:#214972;}
	.st37{fill:#1B9BD0;}
	.st38{fill:#19A0D6;}
	.st39{fill:#1F2856;}
	.st40{fill:#223661;}
	.st41{fill:#1E416A;}
	.st42{fill:#1AA0D5;}
	.st43{fill:#1F3F68;}
	.st44{fill:#2094C5;}
	.st45{fill:#19ABE2;}
	.st46{fill:#18A7DE;}
	.st47{fill:#234D77;}
	.st48{fill:#19A4DA;}
	.st49{fill:#1E4069;}
	.st50{fill:#1F426B;}
	.st51{fill:#218EBF;}
	.st52{fill:#1E98CC;}
	.st53{fill:#218BBB;}
	.st54{fill:#2281B0;}
	.st55{fill:#19A4D9;}
	.st56{fill:#1D98CB;}
	.st57{fill:#1DACE2;}
	.st58{fill:#1C9CD0;}
	.st59{fill:#257DAB;}
	.st60{fill:#1E9CD0;}
	.st61{fill:#2196C8;}
	.st62{fill:#1AA4DA;}
	.st63{fill:#223964;}
	.st64{fill:#1E9ED2;}
	.st65{fill:#2DB2E4;}
	.st66{fill:#2782AF;}
</style>
<g>
	<path class="st0" d="M481,280.9c-0.1,0-0.3,0-0.3,0.1c-5.2,14.7-17.1,20.2-31.2,21.9c-13.2,1.6-25.5-1.6-36.6-9.1
		c-4.8-3.2-5.9-8.1-4.1-13.7c1.6-5.1,5.8-8.3,11.1-8.7c2.5-0.2,3.6,1,3.9,3.2c1.1,11.5,5.2,16.3,16.4,18.3c5,0.9,10,0.7,14.8-1.1
		c4.2-1.6,7.1-4.4,7.7-9.2c0.7-4.6-1.5-7.6-4.8-10.3c-4.9-3.9-10.7-6-16.4-8.4c-6.7-2.8-13.7-5.4-19.8-9.2
		c-9.6-6-13.4-13.4-11.6-23.1c1.5-7.6,6.3-12.9,12.9-16.4c16.5-8.7,32.9-8.9,48.9,1.5c4.9,3.2,5.9,6,4.6,10.3
		c-1.5,4.4-6,8.1-10.5,8.4c-2.2,0.1-3-0.5-3.3-2.8c-1-7.4-6.2-11.3-12.6-13.7c-6.2-2.3-12-1.1-17,3.1c-5.9,5.2-5.5,12.6,0.9,17.4
		c4.8,3.5,10.4,5.6,15.8,7.6c6.8,2.6,13.8,5,19.8,9.2c5.2,3.5,9.5,7.9,10.6,14.5c0.7,1.3-0.2,2.7,0.7,4
		C481,276.6,481,278.7,481,280.9z"/>
	<path class="st1" d="M481,274.6c-1.1-1.1-0.8-2.6-0.7-4c0.2-0.1,0.5,0,0.7,0.1C481,272.1,481,273.3,481,274.6z"/>
	<path class="st0" d="M253.3,267.6c-1.1-3.4-2.4-6.8-3.9-11.2c-1.1,2.6-2.1,4.6-2.8,6.6c-3.4,8.2-6.7,16.4-10,24.5
		c-1.6,4-2.1,7.6,1.1,11.1c0.8,0.9,2.1,2.3-0.2,2.7c-10.3,2.3-22.1-4.1-26-14.2c-2.8-7.4-5.6-14.8-8.4-22.3
		c-4.7-12.2-9.2-24.5-13.9-36.7c-1.5-4-3.3-7.7-5.9-11.2c-1.4-1.7-2.8-3.3-5-4c-0.8-0.2-2.2,0.2-1.9-1.1c0.1-1.1,1.1-1.8,2.2-1.8
		c8.7-0.7,17.3-1.1,24,6c4.7,4.9,7.6,10.8,9.9,17.2c5,13.8,9.9,27.6,15.2,42.3c3.2-7.9,6-14.9,8.9-22c1.1-2.8,2.1-5.9,3.5-8.5
		c3.2-5.5,2.5-10.6,0-16c-2.1-4.3-3.8-8.7-6.8-12.4c-1.4-1.6-2.8-3-4.9-3.6c-0.8-0.2-2.1,0.1-1.8-1.4c0.2-0.9,1.1-1.6,1.9-1.6
		c7-0.5,13.9-1.3,20.3,2.6c7.4,4.7,10.9,12.1,13.7,19.8c3,8.3,5.4,16.9,7.9,25.3c0,0.8-0.6,1.5-1.1,1.8c-4.4,2.8-9.1,5.2-13.7,7.6
		C254.8,267.9,254.1,268.1,253.3,267.6z"/>
	<path class="st0" d="M363.9,209c9.1,0.1,17.5,2.5,25,7.7c4.7,3.3,5.9,6.2,4.6,10.4c-1.5,4.4-6.2,8.1-10.6,8.3
		c-1.9,0.1-2.8-0.2-3.2-2.6c-1.7-12.5-18.3-19.3-28.6-11.7c-6.8,5-7,13.3-0.1,18.3c5.4,4,11.6,6,17.7,8.4c5.8,2.3,11.7,4.6,17.1,7.9
		c17.7,10.6,14.7,31.6,0.2,40.5c-15.8,9.7-32.1,8.9-48.7,1.9c-3-1.3-5.8-2.7-8.2-4.9c-4.1-3.5-5.1-8.2-3.2-13.7
		c1.7-4.8,6.2-8.1,11.1-8.2c2.2-0.1,3.6,0.9,3.5,3.1c-1.1,15.3,14.6,20.6,27.1,18.6c2.1-0.3,4-0.9,5.8-1.8
		c7.4-3.8,8.5-12.3,2.5-17.8c-4-3.6-8.9-5.7-13.7-7.7c-5.4-2.4-10.9-4.6-16.3-6.8c-3.5-1.5-6.8-3.4-10-5.7
		c-12.2-9.1-12.6-24.8-0.7-34.4C343.5,211.6,353.3,209.2,363.9,209z"/>
	<path class="st0" d="M137.6,265.2c0.3,6.2-0.7,13.7,0.5,21.3c0.7,4.7,2.5,8.9,5.8,12.3c0.5,0.6,1.5,1,1.1,1.8
		c-0.3,0.8-1.3,0.7-2.1,0.8c-15.3,1.6-25.2-7.4-25.2-22.8c0-16.6-0.1-33.4-0.2-50c-0.1-5.8-1.8-11.2-6.2-15.3
		c-0.5-0.5-1-0.9-0.9-1.6c0.2-1,1.1-0.9,1.8-0.9c7.9-0.5,15.3,0.6,20.5,7.3c1.3,1.7,2.1,1.1,3.2,0c7.2-7.2,16.2-9.8,26.1-8.9
		c6.2,0.5,11.3,3.1,14,8.8c2.3,4.8,1,9.5-1.9,13.8c-1,1.4-2.3,2.4-3.8,3.3c-1.5,0.9-3.1,1.6-4.8,1.4c-2.6-0.5-1-2.7-1.4-4.1
		c-1.1-5.8-5.4-10.3-10.6-10.8c-6-0.7-10.7,2.1-13.2,7.7c-2.3,5.2-3,10.8-3.1,16.5C137.4,251.8,137.6,257.8,137.6,265.2z"/>
	<path class="st2" d="M253.3,267.6c5.8-3,11.6-6,17.1-9.7c1.9-0.8,2.7,0.2,3.4,1.9c1,2.7,2.3,5.4,3.6,8.7c1.8-5.7,3.3-10.8,5.1-15.8
		c5.6-16.1,12.8-31.3,24.5-44c1.7-1.8,3.5-5,5.7-4.3c1.6,0.5,1.1,4.3,1.4,6.6c0.8,8.4,1.8,16.9,7,24.2c0.7,1,0.9,1.7-0.3,2.5
		c-11.7,8.9-18.2,21.7-25.1,34.1c-6,10.8-10.3,22.3-14.9,34.1c-2.2-1.9-3.1-4.3-4.4-6.4c-6.6-10.4-14.2-19.7-24.6-26.8
		C247.7,269.6,252.5,269.1,253.3,267.6z"/>
	<path class="st3" d="M257.5,190.4c1.7-5.2,3.3-9.6,4.7-14c0.9-2.8,2.4-4.1,5.2-3.3c-4,7.4-5.6,15.6-8.1,23.5
		c-0.2,0.8,0.9,2.3-0.8,2.5c-1.6,0.2-2.7-0.7-3.3-2.2c-1.3-3.2-2.5-6.4-4.1-10.6c-1.3,4.2-3,7.5-3,10.8c0,3.4-1.6,1.8-2.6,1.4
		c-1.3-0.5-1.6-1.9-2.1-3.1c-1.9-5.2-3.9-10.6-5.8-15.8c-0.8-2.3-1.7-4.6-3.5-6.3c5-0.8,5.9-0.3,7.6,4.1c1.5,4,2.8,8,4.3,12.1
		c4-7.6,4.1-9.3-0.6-16.3c4.4-0.7,5.9,0.1,7.5,4.3C254.5,181.5,255.8,185.5,257.5,190.4z"/>
	<path class="st4" d="M274.5,180.5c0,4.6,0,9.2,0,13.8c0,2.6-0.7,4.8-3.8,4.8c0.5-8.8,0.9-17.3-0.3-26c9.2-0.8,8.5,8.3,12.3,13
		c4-4.7,2.7-13.8,12.2-13.1c-1.3,8.7-1.1,17.3-0.1,25.9c-3.6,0.2-5.1-1-5.4-5.1c-0.1-2.3,0-4.6,0-7c0-2.3,0-4.6-0.6-7.2
		c-1.4,3.3-2.7,6.6-4.3,9.9c-0.5,0.9,0.2,2.6-1.6,2.5c-1.5-0.1-2.8-0.8-3.5-2.1c-1.3-2.6-2.4-5.4-3.5-8.1
		C275.8,181.4,275.8,180.6,274.5,180.5z"/>
	<path class="st5" d="M51,286.9c-1.9-2.7-3.1-5.8-3.2-9.2c1.3-1.4,3.1-1.3,4.7-1.3c11.1,0,22,0,33,0c1.6,0,3.4-0.1,4.7,1.3
		c0.3,2.6,0.6,5.2-0.6,7.7c-1.7,1.5-3.9,1.1-5.9,1.1C72.8,286.8,61.9,286.3,51,286.9z"/>
	<path class="st6" d="M38.4,231.7c-2.4-1.8-4.3-4.1-5.4-7.1c0.3-3.2,3-2.8,5-2.8c9.3-0.1,18.8-0.1,28.1,0c2.8,0,5.9-0.8,8.5,1.3
		c0.3,3.1-0.6,5.8-2.3,8.4c-3.3,0.9-6.6,0.5-9.9,0.5C54.6,231.9,46.5,232.1,38.4,231.7z"/>
	<path class="st7" d="M90.3,277.7c-14.1,0-28.3,0-42.4,0c-1-2.1-0.7-4.1-0.6-6.3c1-1.9,3-1.9,4.7-1.9c10.5-0.1,21.1,0,31.6,0
		c1.6,0,3.1,0.2,4.3,1.3C89.1,273,90.3,275.2,90.3,277.7z"/>
	<path class="st8" d="M87.9,270.8c-12.1,0-24.2,0-36.2,0c-1.5,0-3.1-0.2-4.4,0.8c0.1-2.8,0.9-5.5,2.8-7.7c1.3-1,2.8-1.1,4.3-1.1
		c8.1,0,16.1,0,24.2,0c1.7,0,3.3,0.2,4.8,1.3C85.6,265.7,87,268.1,87.9,270.8z"/>
	<path class="st9" d="M33.1,206c2.4-5.2,6.5-8.1,12.3-8.4c2.4-0.6,4.9-0.5,7.3,0c6.2,0.9,11.3,3.5,15,8.5c-1,1.6-2.7,1.8-4.3,1.8
		c-8.7,0.1-17.4,0.1-26.1,0C35.7,207.9,34,207.8,33.1,206z"/>
	<path class="st10" d="M33.1,206c1.1,0.6,2.4,0.8,3.6,0.8c9,0,17.9,0,26.9,0c1.4,0,2.7-0.5,4.1-0.7c2.1,1.9,3.9,4.1,4.9,6.8
		c-1.3,1.4-3.1,1.3-4.7,1.3c-10.7,0-21.5,0-32.2,0c-1.6,0-3.4,0.1-4.7-1.3C31.2,210.6,31.6,208,33.1,206z"/>
	<path class="st11" d="M74.9,223c-12.4,0-25,0-37.4,0c-1.6,0-3.4-0.3-4.3,1.7c-1.4-2.2-2.3-4.4-2.2-7.1c1.1-1.1,2.5-1.1,4-1.1
		c11.9-0.1,23.6-0.1,35.4,0c1.7,0,3.4,0.1,4.3,1.9C75.1,219.9,75.1,221.4,74.9,223z"/>
	<path class="st12" d="M167.4,349.3c1.6,2.8,2.3,5.9,2.2,9.2c-2.5-1.7-5.4-1.9-8.4-1.9c-8.4-0.1-17,0.5-25.4-0.3
		c-1-2.5-1.3-5.1-0.8-7.7c1.1-1,2.5-1.1,4-1.1c8.1-0.1,16.1-0.1,24.2,0C164.8,347.5,166.5,347.7,167.4,349.3z"/>
	<path class="st13" d="M38.4,231.7c0.7-1,1.7-1,2.7-1c9.8,0,19.5,0,29.3,0c0.8,0,1.6,0,2.1,0.7c-3.9,6.8-13,10.5-20.9,8.3
		C46.6,238.1,42.2,235.6,38.4,231.7z"/>
	<path class="st14" d="M211.6,371.9c-1,8.2-7.1,11.9-14.5,8.7c-4.8-2.1-8.2-5.5-10.4-10.1c0.2-2.3,2.1-2.1,3.4-2.1
		c6-0.2,12.1-0.2,18,0C210.3,368.4,212.6,368.6,211.6,371.9z"/>
	<path class="st15" d="M135.8,356.4c1-1.3,2.4-0.8,3.5-0.8c8.7,0,17.3,0.1,26-0.1c2.6-0.1,3.6,0.9,4.2,3.1c0.2,1.8,0.3,3.8-0.6,5.5
		c-8.4-0.8-17-0.2-25.4-0.3c-1.9,0-3.9,0.2-5.5-1.1C136.9,360.6,136.1,358.7,135.8,356.4z"/>
	<path class="st16" d="M87.4,313.9c2.7-8.3,12-13,20.2-10.1c4.7,1.6,8.7,4.3,11.4,8.5c-0.5,1.3-1.6,1.7-2.7,1.8
		C106.6,314.4,97,314.8,87.4,313.9z"/>
	<path class="st17" d="M51,286.9c0.6-2.3,2.4-1.5,3.8-1.5c11.6-0.1,23.2,0,34.9,0c-0.3,2.2-0.8,4.4-2.2,6.3c-1,0.5-2.1,1-3.2,1
		c-9.6,0-19,0.6-28.6-0.3C53.6,290.9,52.1,289.2,51,286.9z"/>
	<path class="st18" d="M90.1,337.2c-1.1-1.4-1.9-2.8-2.2-4.7c-0.3-3.2,2.2-2.6,3.8-2.7c7.2-0.2,14.4-0.1,21.5-0.1
		c3,0,5.9-0.1,8.8,0.1c2.7,0.2,4.1,1.4,3,4.3c0,1.1,0.1,2.2-0.8,3.1c-1.3,1.1-2.8,1.3-4.3,1.3c-8.4,0-17,0-25.4,0
		C93,338.3,91.4,338.1,90.1,337.2z"/>
	<path class="st19" d="M83.3,263.9c-11.1,0-22.2,0-33.3,0C58.1,249.6,76.1,253.1,83.3,263.9z"/>
	<path class="st20" d="M80.5,179.1c-1.6,6.6-7.5,10.6-14.8,9.7C59.3,188,54,185,50,180c0-2.2,1.8-2.1,3.1-2.1
		c8.2-0.2,16.4-0.2,24.6,0C78.8,178,79.8,178.2,80.5,179.1z"/>
	<path class="st21" d="M78,167.5c1.9,2.2,2.7,4.8,2.8,7.6c-9.8-0.6-19.7-0.2-29.6-0.3c-1.8,0-3.6,0.1-5.1-1.1
		c-1-1.6-1.6-3.4-1.5-5.4c0.1-1.8,1.6-1.9,2.7-1.9c9.2-0.2,18.5-0.2,27.7,0C76.2,166.5,77.2,167,78,167.5z"/>
	<path class="st22" d="M125.1,334.1c0.2-2.2-0.5-3.2-3-3.2c-10.4,0.1-20.7,0-31.1,0c-1.3,0-2.7-0.3-3,1.6c-1.3-2.2-1.6-4.4-1.5-7
		c1.4-1.3,3.1-1.3,4.7-1.3c9.7,0,19.4,0,29.1,0c1.7,0,3.3,0.2,4.7,1.3C125.8,328.4,126.2,331.2,125.1,334.1z"/>
	<path class="st23" d="M136,343.2c3-10,10.8-13.3,19.8-8.3c3.3,1.8,6.2,4.1,7.9,7.5c-1,1.3-2.6,1.6-4.1,1.7
		c-7.1,0.3-14,0.6-21.1-0.1C137.7,343.9,136.8,343.8,136,343.2z"/>
	<path class="st24" d="M73.3,149.8c-1.6-2.1-1.7-4.4-1.4-7c0.9-1.8,2.6-1.9,4.3-1.9c6.3,0,12.5-0.2,18.8,0.1c3,2.3,4.9,5.2,5.9,8.8
		c-1,1.1-2.5,1.1-3.9,1.1c-6.6,0.1-13.2,0.1-19.9,0C75.8,151,74.4,150.7,73.3,149.8z"/>
	<path class="st25" d="M55.5,292.5c0.8-1.1,2.1-0.8,3.2-0.8c9.6,0,19.1,0,28.7,0c-4,7.2-10.9,10.4-18.9,8.3
		C63.5,298.8,59.2,296.2,55.5,292.5z"/>
	<path class="st26" d="M74.7,218.3c-1.4-0.9-3-0.7-4.4-0.7c-13.1,0-26.2,0-39.2,0c0-1.6,0-3.1,0-4.7c13.9,0,27.8,0,41.7,0
		C74,214.5,74.4,216.4,74.7,218.3z"/>
	<path class="st27" d="M211.6,371.9c-0.1-1.1-0.1-2.4-1.8-2.4c-7.4,0-14.8,0.1-22.2,0.2c-0.3,0-0.6,0.5-0.9,0.7
		c-1.5-2.2-3-4.3-3.1-7c-0.1-1.7,1.4-1.8,2.4-1.8c8.4-0.1,16.9-0.7,25.3,0.2C212.4,365.1,212.6,368.5,211.6,371.9z"/>
	<path class="st12" d="M182.9,359.6c-1.1-4.1-0.6-8,1.6-11.7c6.3-0.6,12.5-0.7,18.8-0.1c2.6,2.1,4.3,4.8,5.7,7.9
		c-0.9,2.1-2.8,1.8-4.6,1.8c-5.1,0.1-10.1,0.1-15.3,0C186.8,357.4,184.6,357.9,182.9,359.6z"/>
	<path class="st28" d="M241.7,359.7c-0.8,6.4-5.1,9.1-11.1,7c-4.7-1.7-7.7-5.1-9.9-9.5c0-2.2,1.6-2.5,3.1-2.6c5-0.3,10-0.3,15,0
		C242.6,354.7,242.3,357.1,241.7,359.7z"/>
	<path class="st29" d="M87.4,313.9c1.4-0.9,3-0.8,4.4-0.8c7.5,0,15.2,0,22.7,0c1.6,0,3.1,0,4.4-0.8c1.6,1.5,2.6,3.3,3.2,5.4
		c-0.8,1.8-2.5,1.9-4.2,2.1c-9.3,0.1-18.6,0.1-27.9,0c-1.3,0-2.5-0.2-3.5-1.1C86.3,317,86.6,315.4,87.4,313.9z"/>
	<path class="st30" d="M234.4,339.4c2.3,2.6,4.7,5,5.6,8.4c-0.7,1.6-2.2,1.8-3.5,1.8c-6.3,0-12.5,0.5-18.9-0.2
		c-1.1-3.2-1.1-6.3-0.1-9.5C223.1,338.1,228.8,339,234.4,339.4z"/>
	<path class="st31" d="M46.2,173.7c10.3,0,20.5,0,30.7-0.1c1.6,0,3.1,0,4,1.5c0.1,1.4,0.5,2.7-0.5,4c-9,0-18,0-26.9,0
		c-1.3,0-2.6-0.3-3.5,1C48.1,178.3,46.7,176.3,46.2,173.7z"/>
	<path class="st32" d="M138.1,362.6c9.1,0,18.1,0,27.2,0c1.4,0,3.3-0.8,3.8,1.6c0.1,1.7-0.3,3.3-1.4,4.7c-1.3,0.6-2.5,1.1-4,1.1
		c-7-0.1-14,0.3-21-0.2C140.6,367.6,139,365.3,138.1,362.6z"/>
	<path class="st33" d="M259.3,330.1c0.1,0.8,0.3,1.5,0.3,2.3c0,3.2,0.5,6.6-3.1,8.5c-3.4,1.8-6.5,0.1-9.2-1.8
		c-3.4-2.4-5.9-5.6-7.1-9.7c2.1-1.8,4.6-1.1,7-1.1c2.7-0.1,5.6-0.1,8.3,0C256.9,328.3,258.5,328.5,259.3,330.1z"/>
	<path class="st34" d="M44.7,163.6c1-5.5,6.2-8.7,13.3-8.1c6.2,0.5,11.6,2.8,16.1,7.3c-1.3,1.6-3.1,1.8-4.8,1.9
		c-7.1,0.2-14,0.1-21.1,0C46.8,164.7,45.6,164.6,44.7,163.6z"/>
	<path class="st35" d="M90.1,337.2c11.4,0,22.8,0,34.2-0.1c-0.3,2.4-1.4,4.6-3.1,6.3c-6.8,0.6-13.8,0.1-20.6,0.2
		c-1.7,0-3.3,0.2-4.9,0.5C93.2,342.3,91.3,340,90.1,337.2z"/>
	<path class="st15" d="M182.9,359.6c-0.2-2.5,0.8-3.3,3.3-3.3c6.3,0.1,12.5,0,18.7,0c1.4,0,2.8,0.1,4.1-0.7c1.1,1.9,2.1,3.9,2.4,6.2
		c-1.6,1.1-3.4,0.7-5.2,0.7c-6.2,0-12.3,0-18.5,0c-1.4,0-2.8-0.5-4,0.8C182.8,362.2,182.8,360.9,182.9,359.6z"/>
	<path class="st30" d="M136,343.2c2.1-1.6,4.2,0.2,6.3,0.1c7.2-0.3,14.4,0.5,21.4-0.9c1.8,2.1,3,4.3,3.6,7c-1.4-0.9-3-0.8-4.4-0.8
		c-9.3,0-18.6,0-27.9,0C134.8,346.7,135.2,344.9,136,343.2z"/>
	<path class="st36" d="M263.1,299.3c1.1,2.4,2.1,5,1.8,7.7c-0.3,4.3-3.2,6.3-7.2,4.7c-5.1-1.9-8.3-5.7-9.9-10.9
		c-0.8-1.6,0.3-2.3,1.5-2.4C254,298.2,258.7,297,263.1,299.3z"/>
	<path class="st12" d="M217.7,349.6c1.3-1.6,3.1-0.8,4.7-0.9c5.9-0.5,11.9,0.9,17.8-0.8c1.9,3.8,3,7.6,1.7,11.9
		c0.5-3.4-1-4.4-4.3-4.2c-4.2,0.3-8.4,0.1-12.6,0.1c-1.5,0-3.2-0.2-4,1.6C219,354.9,217.9,352.4,217.7,349.6z"/>
	<path class="st37" d="M73.3,149.8c9.2,0,18.5,0,27.7,0c1.1,2.1,1.4,4.1,0.1,6.2c-0.7,0.6-1.5,1-2.4,1c-6,0.3-12,0.2-18,0
		c-1,0-1.9-0.6-2.8-1C75.7,154.4,74.1,152.3,73.3,149.8z"/>
	<path class="st38" d="M128.1,142.1c1.5,2.5,1.9,5.1,0,7.6c-5.4,2.1-10.7,1.7-16.1,0c-2.4-1.4-4.3-3.1-5.5-5.5
		c-0.9-1.5-0.3-2.8,1.1-2.8C114.5,140.8,121.4,139.7,128.1,142.1z"/>
	<path class="st39" d="M142.8,369.6c0.8-1.1,2.1-0.9,3.1-0.9c7.3,0,14.6,0,21.9,0.1C162.1,379.8,151.7,380.1,142.8,369.6z"/>
	<path class="st40" d="M95.7,344.1c0.1-1,0.7-1.6,1.7-1.6c7.5,0,15,0,22.6,0.1c0.5,0,0.8,0.6,1.3,0.8c-5,7.2-13,8.8-21.1,4.1
		C98.6,346.6,96.9,345.7,95.7,344.1z"/>
	<path class="st41" d="M86.5,318.6c10.3,0,20.5,0,30.9,0c1.7,0,3.3,0,4.9-0.9c1.1,1.4,1.7,3,2.1,4.7c-2.1,1.3-4.4,1.1-6.7,1.1
		c-8.4,0-16.9,0.1-25.3,0c-1.9,0-3.9,0.3-5.7,0.6C85.7,322.2,86,320.4,86.5,318.6z"/>
	<path class="st42" d="M154.5,142c2.3,2.1,3.9,4.7,4.3,7.7c-5.9,2.1-11.9,1.8-17.8,0c-2.4-2.1-3.5-4.7-3.6-7.7
		C143.3,140,148.8,140.4,154.5,142z"/>
	<path class="st43" d="M259.3,330.1c-4.3-1.6-8.9-0.3-13.3-0.7c-1.9-0.1-3.9,0-5.8,0c-1.1-1.8-1.7-3.9-1.6-6
		c-0.1-1.7,1.3-1.8,2.3-1.9c4.9-0.2,9.7-0.7,14.6,0.2C257.7,324,258.8,326.9,259.3,330.1z"/>
	<path class="st44" d="M44.7,163.6c7.9,0,15.8,0.1,23.7,0c1.9,0,3.8-0.5,5.6-0.7c1.8,1.1,3.1,2.7,4,4.6c-9.8,0-19.6,0-29.4,0
		c-1.4,0-2.8-0.5-3.9,0.8C43.9,166.8,43.8,165.2,44.7,163.6z"/>
	<path class="st45" d="M316.6,198.9c-1.8,0-4,0-6.2,0c1.4-8.5,0.9-17.2,0.3-26c1.5-0.2,3.8,0.9,5.9-0.5
		C315.2,181.6,315.3,190.3,316.6,198.9z"/>
	<path class="st46" d="M104.3,138.2c-0.1-5.9,4.3-9.2,10.7-7.4c4.3,1.3,8.2,3.4,10.8,7.4c-0.7,0.8-1.7,1-2.7,1.1
		c-5.4,0.2-10.7,0.2-16,0C106,139.3,105.1,139,104.3,138.2z"/>
	<path class="st47" d="M263.1,299.3c-4.1,0-8.2,0-12.3,0c-1.3,0-2.7-0.3-3,1.5c-1.1-1.3-1.1-2.8-1.3-4.3c-0.2-2.4,0.3-4.6,2.3-6.2
		c2.2-1.7,4.1-0.7,6,0.2C258.7,292.5,261.5,295.3,263.1,299.3z"/>
	<path class="st48" d="M95,141c-1,1.5-2.5,1-3.9,1c-5.1,0-10.1,0-15.3,0c-1.4,0-2.8-0.1-4.1,0.8c1.3-4.9,4.1-7.4,9.1-7.5
		C86.5,135.2,91.4,136.8,95,141z"/>
	<path class="st49" d="M86.4,324c0.5-2.4,2.3-1.6,3.6-1.6c9.5,0,18.9,0,28.5,0c1.9,0,3.8,0,5.7,0c0.2,1,0.6,2.1,0.8,3.1
		c-12.9,0-25.6,0-38.5,0C86.5,325.1,86.4,324.6,86.4,324z"/>
	<path class="st50" d="M255.4,321.7c-4.1,1.6-8.4,0.3-12.5,0.8c-1.5,0.1-3.1-0.6-4.3,0.9c-0.5-3.3-0.3-6.5,2.8-8.4
		c3.3-2.1,6.4-0.6,9.1,1.6C252.3,318,254.4,319.4,255.4,321.7z"/>
	<path class="st51" d="M195.2,178.4c-0.2-0.2-0.5-0.3-0.6-0.6c-1.1-2.7-3-5.7-0.2-8.1c2.7-2.4,5.8-1,8.5,0.7s5.1,3.9,6.2,7.1
		C204.7,179.7,199.9,178.4,195.2,178.4z"/>
	<path class="st52" d="M77.8,156c7.7,0,15.5,0,23.2,0c-2.2,5-6.7,7.2-12.6,5.9C84.5,160.9,80.7,159.2,77.8,156z"/>
	<path class="st53" d="M195.2,178.4c3-2.1,6.3-0.6,9.3-0.9c1.5-0.2,3.1,0,4.7,0c1.5,2.4,1.9,4.9,0,7.1c-2.2,2.4-4.8,1.4-7.1,0.2
		C199.2,183.3,196.5,181.6,195.2,178.4z"/>
	<path class="st54" d="M216.1,200.8c-2.7-3.8-3.2-7.6-1.4-9.3c1.9-1.8,6-1,9.3,1.9c1.8,1.6,3.5,3.3,4.2,5.8c-1.7,1.6-3.9,1-5.8,1
		C220.4,200.2,218.2,200.6,216.1,200.8z"/>
	<path class="st55" d="M104.3,138.2c7.2,0,14.4,0,21.5,0c1.1,1,2.1,2.3,2.3,3.9c-6.2,0-12.3,0-18.5,0c-1.6,0-3.3-0.2-3.1,2.2
		C105.1,142.5,104.1,140.6,104.3,138.2z"/>
	<path class="st56" d="M170.6,162.1c-1.7-1.7-3-3.6-3.2-6.2c5.1-2.1,10.3-1.9,15.4,0c1.1,1.4,2.3,2.6,2.6,4.4c0.2,1.5-1,1.8-1.9,1.8
		C179.1,162.5,174.8,163.1,170.6,162.1z"/>
	<path class="st57" d="M299,179.8c2.4,0.2,4.3,0.7,6.4-0.1c-0.6,6.3-1.3,12.3,0.1,18.2c0.3,1.7-1,1.3-1.6,1.1
		c-2.5-0.6-3.4-2.4-3.4-4.8c0-3.1-0.1-6.2,0-9.2C300.5,183.3,300,181.7,299,179.8z"/>
	<path class="st58" d="M141.2,149.8c5.9,0,11.9,0,17.8,0c-0.1,4.6-1.7,6.3-6.2,6.3C147.7,156.1,144,153.7,141.2,149.8z"/>
	<path class="st40" d="M203.3,347.7c-6.3,1.3-12.5,1.5-18.8,0.1c2.7-5.1,7.7-6.8,13.1-4.3C199.8,344.6,201.8,345.8,203.3,347.7z"/>
	<path class="st59" d="M216.1,200.8c0.7-1.6,2.1-1.7,3.5-1.7c3,0,5.8,0,8.8,0c1.3,2.4,1.8,5-0.3,7c-2.2,1.8-4.6,0.7-6.7-0.5
		C219.1,204.4,217.1,203.1,216.1,200.8z"/>
	<path class="st60" d="M182.8,156c-5.1,0-10.3,0-15.4,0c-0.8-4.6,1.5-7.1,6-6.4C177.4,150.2,180.5,152.4,182.8,156z"/>
	<path class="st61" d="M170.6,162.1c3.4-1.3,7.1-0.7,10.6-0.8c1.5-0.1,3.1,0.6,4.2-0.9c1.5,5.5-1.4,8.4-6.7,7.2
		C175.3,166.7,172.7,164.9,170.6,162.1z"/>
	<path class="st62" d="M154.5,142c-5.7,0-11.3,0-17,0.1c0.5-4.4,3.4-6.7,7.9-5.8C149.2,136.9,152.4,138.8,154.5,142z"/>
	<path class="st63" d="M234.4,339.4c-5.6,1.5-11.3,0.3-16.9,0.7c2.3-5.9,6.3-7.4,12-4.6C231.4,336.5,233.3,337.5,234.4,339.4z"/>
	<path class="st64" d="M112,149.7c5.4,0,10.7,0,16.1,0c-2.8,3.6-6.7,4.6-11.9,2.5C114.8,151.6,113.2,151,112,149.7z"/>
	<path class="st65" d="M300.3,175.5c0-1.4,0.9-1.7,2.1-1.7c1.1,0,2.5-0.2,2.6,1.5c0,1.4-0.8,2.4-2.4,2.4
		C301.2,177.5,300.6,176.6,300.3,175.5z"/>
	<path class="st66" d="M52.7,197.4c-2.4,0-4.9,0-7.3,0C47.9,196.7,50.3,196.5,52.7,197.4z"/>
</g>
</svg>
