<?xml version="1.0" encoding="utf-8"?>
<!-- Generator: Adobe Illustrator 28.4.1, SVG Export Plug-In . SVG Version: 6.00 Build 0)  -->
<svg version="1.1" id="Warstwa_1" xmlns:serif="http://www.serif.com/"
	 xmlns="http://www.w3.org/2000/svg" xmlns:xlink="http://www.w3.org/1999/xlink" x="0px" y="0px" viewBox="0 0 456 456"
	 style="enable-background:new 0 0 456 456;" xml:space="preserve">
<style type="text/css">
	.st0{fill:#1E2251;}
	.st1{fill:#696B8B;}
	.st2{fill:#16A9E1;}
	.st3{fill:#17AAE1;}
	.st4{fill:#18AAE1;}
	.st5{fill:#24537D;}
	.st6{fill:#246F9B;}
	.st7{fill:#245781;}
	.st8{fill:#235A84;}
	.st9{fill:#247CAA;}
	.st10{fill:#2478A5;}
	.st11{fill:#24739F;}
	.st12{fill:#20315D;}
	.st13{fill:#246B96;}
	.st14{fill:#1F2755;}
	.st15{fill:#1F2E5A;}
	.st16{fill:#204670;}
	.st17{fill:#235079;}
	.st18{fill:#203B65;}
	.st19{fill:#235E88;}
	.st20{fill:#2089B9;}
	.st21{fill:#1F90C1;}
	.st22{fill:#1F3D67;}
	.st23{fill:#213863;}
	.st24{fill:#19A0D5;}
	.st25{fill:#234E77;}
	.st26{fill:#2475A1;}
	.st27{fill:#1F2B58;}
	.st28{fill:#202E5A;}
	.st29{fill:#1E436C;}
	.st30{fill:#213560;}
	.st31{fill:#208DBE;}
	.st32{fill:#1F2B57;}
	.st33{fill:#203B66;}
	.st34{fill:#1E96C9;}
	.st35{fill:#203862;}
	.st36{fill:#214972;}
	.st37{fill:#1B9BD0;}
	.st38{fill:#19A0D6;}
	.st39{fill:#1F2856;}
	.st40{fill:#223661;}
	.st41{fill:#1E416A;}
	.st42{fill:#1AA0D5;}
	.st43{fill:#1F3F68;}
	.st44{fill:#2094C5;}
	.st45{fill:#19ABE2;}
	.st46{fill:#18A7DE;}
	.st47{fill:#234D77;}
	.st48{fill:#19A4DA;}
	.st49{fill:#1E4069;}
	.st50{fill:#1F426B;}
	.st51{fill:#218EBF;}
	.st52{fill:#1E98CC;}
	.st53{fill:#218BBB;}
	.st54{fill:#2281B0;}
	.st55{fill:#19A4D9;}
	.st56{fill:#1D98CB;}
	.st57{fill:#1DACE2;}
	.st58{fill:#1C9CD0;}
	.st59{fill:#257DAB;}
	.st60{fill:#1E9CD0;}
	.st61{fill:#2196C8;}
	.st62{fill:#1AA4DA;}
	.st63{fill:#223964;}
	.st64{fill:#1E9ED2;}
	.st65{fill:#2DB2E4;}
	.st66{fill:#2782AF;}
</style>
<g>
	<path class="st0" d="M364.2,250c-0.1,0-0.2,0-0.2,0.1c-3.1,8.7-10.1,11.9-18.5,13c-7.8,1-15.2-0.9-21.7-5.4
		c-2.8-1.9-3.5-4.8-2.5-8.1c1-3,3.5-4.9,6.6-5.2c1.5-0.1,2.1,0.6,2.3,1.9c0.7,6.9,3.1,9.7,9.7,10.9c2.9,0.5,5.9,0.4,8.8-0.7
		c2.5-1,4.2-2.7,4.6-5.4c0.4-2.7-0.9-4.5-2.9-6.1c-2.9-2.3-6.3-3.6-9.7-5c-4-1.7-8.1-3.1-11.8-5.5c-5.7-3.6-8-8-6.9-13.7
		c0.9-4.5,3.7-7.7,7.7-9.7c9.8-5.1,19.6-5.3,29,0.9c2.9,1.9,3.5,3.6,2.7,6.1c-0.8,2.7-3.6,4.8-6.2,5c-1.3,0.1-1.8-0.3-2-1.7
		c-0.6-4.4-3.7-6.7-7.5-8.1c-3.6-1.4-7.1-0.7-10.1,1.9c-3.5,3.1-3.3,7.5,0.6,10.3c2.9,2.1,6.2,3.3,9.4,4.6c4,1.6,8.2,3,11.8,5.4
		c3.1,2.1,5.6,4.7,6.3,8.6c0.4,0.7-0.2,1.6,0.4,2.4C364.2,247.6,364.2,248.8,364.2,250z"/>
	<path class="st1" d="M364.2,246.4c-0.6-0.7-0.5-1.5-0.4-2.4c0.1,0,0.3,0,0.4,0.1C364.2,244.8,364.2,245.6,364.2,246.4z"/>
	<path class="st0" d="M229.2,242.2c-0.7-2-1.4-4.1-2.3-6.6c-0.7,1.6-1.2,2.7-1.7,3.9c-2,4.8-4,9.7-6,14.6c-1,2.3-1.2,4.5,0.7,6.6
		c0.5,0.5,1.2,1.3-0.2,1.6c-6.1,1.4-13.1-2.5-15.4-8.4c-1.7-4.4-3.3-8.8-5-13.2c-2.7-7.3-5.5-14.5-8.3-21.7c-0.9-2.3-2-4.6-3.5-6.6
		c-0.8-1-1.7-2-3-2.4c-0.4-0.2-1.3,0.2-1.2-0.7c0.1-0.7,0.7-1.1,1.3-1.1c5.2-0.4,10.3-0.6,14.3,3.6c2.8,2.9,4.6,6.4,5.9,10.2
		c3,8.2,5.9,16.4,9,25.1c1.9-4.7,3.6-8.9,5.3-13.1c0.7-1.7,1.2-3.5,2.1-5c1.9-3.2,1.5-6.3,0-9.5c-1.2-2.5-2.2-5.2-4-7.4
		c-0.8-1-1.7-1.8-2.9-2.1c-0.5-0.1-1.2,0-1.1-0.8c0.1-0.5,0.7-0.9,1.2-1c4.1-0.3,8.2-0.8,12,1.6c4.4,2.8,6.5,7.2,8.1,11.8
		c1.7,4.9,3.1,10,4.7,15c0,0.5-0.3,0.9-0.7,1.1c-2.6,1.7-5.4,3.1-8.1,4.6C230.1,242.3,229.6,242.4,229.2,242.2z"/>
	<path class="st0" d="M294.7,207.4c5.4,0.1,10.4,1.5,14.8,4.6c2.8,1.9,3.5,3.7,2.7,6.1c-0.9,2.6-3.7,4.8-6.3,5
		c-1.1,0.1-1.7-0.2-1.9-1.5c-1-7.4-10.9-11.4-17-7c-4.1,3-4.1,7.9-0.1,10.9c3.2,2.3,6.9,3.6,10.5,5c3.5,1.4,6.9,2.7,10.1,4.6
		c10.5,6.3,8.8,18.8,0.2,24c-9.4,5.8-19.1,5.3-28.9,1.2c-1.8-0.7-3.4-1.6-4.9-2.9c-2.4-2.1-3.1-4.8-1.9-8.1c1-2.8,3.7-4.8,6.6-4.9
		c1.3,0,2.2,0.5,2.1,1.8c-0.7,9.1,8.7,12.2,16.1,11c1.2-0.2,2.4-0.5,3.5-1.1c4.4-2.3,5.1-7.3,1.5-10.6c-2.4-2.1-5.2-3.3-8.1-4.6
		c-3.2-1.4-6.5-2.7-9.7-4.1c-2.1-0.9-4.1-2-5.9-3.4c-7.3-5.4-7.5-14.7-0.4-20.4C282.6,209,288.5,207.5,294.7,207.4z"/>
	<path class="st0" d="M160.4,240.8c0.2,3.6-0.4,8.1,0.3,12.6c0.4,2.8,1.5,5.3,3.4,7.3c0.3,0.3,0.9,0.6,0.6,1.1
		c-0.2,0.5-0.7,0.4-1.2,0.5c-9.1,0.9-14.9-4.4-14.9-13.5c0-9.9,0-19.8-0.2-29.7c0-3.4-1.1-6.6-3.6-9.1c-0.3-0.3-0.6-0.5-0.5-0.9
		c0.1-0.6,0.7-0.5,1.1-0.5c4.7-0.2,9,0.3,12.2,4.3c0.8,1,1.2,0.7,1.9,0c4.3-4.3,9.6-5.8,15.5-5.3c3.6,0.3,6.7,1.8,8.3,5.2
		c1.4,2.9,0.6,5.6-1.2,8.2c-0.6,0.8-1.4,1.4-2.2,2c-0.9,0.5-1.8,1-2.8,0.8c-1.6-0.2-0.6-1.6-0.8-2.4c-0.7-3.4-3.2-6.1-6.3-6.4
		c-3.6-0.4-6.4,1.2-7.9,4.6c-1.4,3.1-1.7,6.5-1.8,9.8C160.4,232.8,160.4,236.4,160.4,240.8z"/>
	<path class="st2" d="M229.2,242.2c3.5-1.8,6.9-3.6,10.1-5.7c1.2-0.5,1.6,0.2,2,1.1c0.6,1.6,1.3,3.2,2.2,5.1c1.1-3.4,2-6.4,3-9.4
		c3.3-9.6,7.6-18.6,14.6-26.1c1-1.1,2.1-3,3.4-2.6c0.9,0.3,0.7,2.5,0.8,3.9c0.5,5,1.1,10,4.1,14.3c0.4,0.6,0.5,1-0.2,1.5
		c-7,5.3-10.8,12.9-14.9,20.2c-3.6,6.4-6.1,13.3-8.9,20.2c-1.3-1.1-1.8-2.6-2.6-3.8c-4-6.1-8.5-11.7-14.6-15.9
		C225.8,243.4,228.7,243.1,229.2,242.2z"/>
	<path class="st3" d="M231.6,196.3c1-3.1,1.9-5.7,2.7-8.3c0.5-1.7,1.4-2.4,3.1-2c-2.4,4.4-3.3,9.3-4.8,13.9
		c-0.2,0.5,0.6,1.3-0.4,1.5c-1,0.2-1.6-0.4-1.9-1.3c-0.8-1.9-1.5-3.8-2.4-6.3c-0.7,2.5-1.7,4.5-1.7,6.5c0,2-1,1.1-1.6,0.8
		c-0.8-0.3-0.9-1.1-1.2-1.9c-1.2-3.1-2.3-6.3-3.4-9.4c-0.5-1.4-1-2.7-2.1-3.7c2.9-0.5,3.5-0.2,4.5,2.4c0.9,2.3,1.7,4.7,2.6,7.2
		c2.4-4.5,2.5-5.5-0.4-9.7c2.7-0.4,3.5,0.1,4.4,2.5C229.8,191.1,230.6,193.4,231.6,196.3z"/>
	<path class="st4" d="M241.7,190.5c0,2.7,0,5.4,0,8.2c0,1.6-0.4,2.8-2.3,2.8c0.3-5.2,0.5-10.2-0.2-15.4c5.4-0.5,5.1,4.9,7.3,7.7
		c2.3-2.7,1.7-8.2,7.2-7.7c-0.7,5.2-0.7,10.3,0,15.4c-2.2,0.1-3.1-0.6-3.2-3c-0.1-1.4,0-2.7,0-4.1c0-1.4,0-2.7-0.3-4.2
		c-0.8,2-1.6,3.9-2.6,5.9c-0.2,0.5,0.1,1.6-1,1.5c-0.9-0.1-1.7-0.5-2.1-1.2c-0.8-1.6-1.4-3.2-2.1-4.8
		C242.4,191,242.5,190.5,241.7,190.5z"/>
	<path class="st5" d="M109.1,253.6c-1.2-1.6-1.9-3.4-1.9-5.4c0.8-0.8,1.8-0.7,2.8-0.7c6.5,0,13.1,0,19.6,0c1,0,2,0,2.8,0.7
		c0.2,1.6,0.3,3.1-0.4,4.6c-1,0.9-2.3,0.7-3.5,0.7C122,253.6,115.5,253.3,109.1,253.6z"/>
	<path class="st6" d="M101.7,220.9c-1.4-1.1-2.6-2.4-3.2-4.2c0.2-1.9,1.8-1.7,3-1.7c5.6-0.1,11.1-0.1,16.7,0c1.7,0,3.5-0.5,5.1,0.7
		c0.2,1.8-0.3,3.5-1.4,5c-1.9,0.6-3.9,0.3-5.9,0.3C111.2,221,106.4,221.1,101.7,220.9z"/>
	<path class="st7" d="M132.4,248.2c-8.4,0-16.8,0-25.2,0c-0.6-1.2-0.4-2.4-0.3-3.7c0.6-1.2,1.7-1.1,2.8-1.1c6.2,0,12.5,0,18.7,0
		c0.9,0,1.8,0.2,2.6,0.7C131.7,245.4,132.4,246.6,132.4,248.2z"/>
	<path class="st8" d="M131,244.1c-7.2,0-14.3,0-21.5,0c-0.9,0-1.8-0.1-2.7,0.4c0-1.7,0.5-3.3,1.7-4.6c0.8-0.6,1.7-0.7,2.6-0.7
		c4.8,0,9.6,0,14.3,0c1,0,2,0.2,2.8,0.7C129.6,241,130.4,242.5,131,244.1z"/>
	<path class="st9" d="M98.5,205.6c1.4-3.1,3.9-4.8,7.3-5c1.4-0.3,2.9-0.3,4.3,0c3.7,0.5,6.7,2.1,8.9,5.1c-0.6,1-1.6,1.1-2.6,1.1
		c-5.2,0.1-10.3,0.1-15.5,0C100,206.8,99,206.7,98.5,205.6z"/>
	<path class="st10" d="M98.5,205.6c0.7,0.4,1.4,0.5,2.2,0.5c5.3,0,10.6,0,16,0c0.8,0,1.6-0.3,2.4-0.4c1.2,1.2,2.3,2.4,2.9,4.1
		c-0.8,0.8-1.8,0.7-2.8,0.7c-6.4,0-12.8,0-19.2,0c-1,0-2,0.1-2.8-0.7C97.3,208.3,97.5,206.8,98.5,205.6z"/>
	<path class="st11" d="M123.2,215.7c-7.4,0-14.8,0-22.2,0c-1,0-2-0.2-2.6,1c-0.8-1.3-1.4-2.6-1.3-4.2c0.6-0.7,1.5-0.7,2.3-0.7
		c7,0,14-0.1,21,0c1,0,2,0.1,2.6,1.1C123.4,213.9,123.4,214.8,123.2,215.7z"/>
	<path class="st12" d="M178.2,290.7c1,1.7,1.3,3.5,1.3,5.5c-1.5-1-3.2-1.1-5-1.1c-5,0-10.1,0.3-15.1-0.2c-0.6-1.5-0.8-3-0.5-4.6
		c0.7-0.6,1.5-0.7,2.3-0.7c4.8,0,9.5,0,14.3,0C176.6,289.6,177.6,289.7,178.2,290.7z"/>
	<path class="st13" d="M101.7,220.9c0.4-0.6,1-0.6,1.6-0.6c5.8,0,11.6,0,17.3,0c0.5,0,0.9,0,1.3,0.4c-2.3,4-7.7,6.2-12.3,4.9
		C106.5,224.7,103.8,223.2,101.7,220.9z"/>
	<path class="st14" d="M204.4,304c-0.6,4.8-4.2,7-8.6,5.1c-2.8-1.2-4.9-3.2-6.1-6c0.1-1.3,1.2-1.2,2.1-1.2c3.6-0.1,7.1-0.1,10.7,0
		C203.6,302,205,302.1,204.4,304z"/>
	<path class="st15" d="M159.4,294.9c0.6-0.7,1.4-0.5,2.1-0.5c5.1,0,10.3,0.1,15.4-0.1c1.5,0,2.2,0.5,2.5,1.9
		c0.2,1.1,0.2,2.2-0.3,3.3c-5-0.4-10.1-0.1-15.1-0.2c-1.1,0-2.3,0.1-3.3-0.7C160,297.4,159.6,296.2,159.4,294.9z"/>
	<path class="st16" d="M130.7,269.7c1.6-5,7.1-7.7,12-6c2.8,1,5.1,2.6,6.8,5.1c-0.3,0.7-0.9,1-1.6,1.1
		C142.1,269.9,136.4,270.2,130.7,269.7z"/>
	<path class="st17" d="M109.1,253.6c0.3-1.4,1.4-0.9,2.2-0.9c6.9,0,13.8,0,20.7,0c-0.2,1.3-0.4,2.6-1.3,3.7
		c-0.6,0.3-1.2,0.6-1.9,0.6c-5.7,0-11.3,0.3-17-0.2C110.6,256,109.7,255,109.1,253.6z"/>
	<path class="st18" d="M132.3,283.4c-0.7-0.8-1.1-1.7-1.3-2.8c-0.2-1.9,1.3-1.6,2.2-1.6c4.3-0.1,8.5-0.1,12.8-0.1
		c1.7,0,3.5-0.1,5.2,0.1c1.6,0.1,2.4,0.8,1.8,2.5c0,0.6,0.1,1.3-0.5,1.8c-0.7,0.7-1.7,0.7-2.6,0.7c-5,0-10.1,0-15.1,0
		C134,284.1,133.1,284,132.3,283.4z"/>
	<path class="st19" d="M128.3,239.9c-6.6,0-13.2,0-19.7,0C113.3,231.5,124,233.5,128.3,239.9z"/>
	<path class="st20" d="M126.6,189.7c-0.9,3.9-4.5,6.3-8.8,5.7c-3.8-0.5-6.9-2.2-9.3-5.2c0-1.3,1.1-1.2,1.8-1.2
		c4.9-0.2,9.8-0.2,14.6,0C125.6,189,126.2,189.2,126.6,189.7z"/>
	<path class="st21" d="M125.1,182.8c1.1,1.3,1.6,2.9,1.7,4.6c-5.8-0.3-11.7-0.1-17.5-0.2c-1.1,0-2.1,0-3-0.7c-0.6-1-0.9-2-0.9-3.2
		c0.1-1.1,0.9-1.1,1.6-1.2c5.5-0.2,11-0.2,16.4,0C124,182.1,124.6,182.5,125.1,182.8z"/>
	<path class="st22" d="M153,281.6c0.1-1.3-0.3-1.9-1.8-1.9c-6.2,0.1-12.3,0-18.5,0c-0.7,0-1.6-0.2-1.8,0.9c-0.7-1.3-1-2.7-0.9-4.1
		c0.8-0.7,1.8-0.7,2.8-0.7c5.7,0,11.5,0,17.2,0c1,0,2,0.1,2.8,0.7C153.5,278.2,153.7,279.9,153,281.6z"/>
	<path class="st23" d="M159.5,287.1c1.7-5.9,6.4-7.9,11.8-4.9c1.9,1.1,3.7,2.4,4.7,4.5c-0.6,0.8-1.6,1-2.5,1
		c-4.2,0.2-8.3,0.3-12.5-0.1C160.5,287.5,160,287.3,159.5,287.1z"/>
	<path class="st24" d="M122.3,172.3c-1-1.2-1-2.7-0.8-4.1c0.6-1.1,1.6-1.1,2.6-1.1c3.7,0,7.4-0.1,11.2,0.1c1.8,1.3,2.9,3.1,3.5,5.2
		c-0.6,0.7-1.5,0.7-2.3,0.7c-3.9,0-7.9,0-11.8,0C123.8,173,123,172.8,122.3,172.3z"/>
	<path class="st25" d="M111.8,256.9c0.5-0.7,1.2-0.5,1.9-0.5c5.7,0,11.4,0,17,0c-2.4,4.3-6.5,6.2-11.2,5
		C116.5,260.7,113.9,259.1,111.8,256.9z"/>
	<path class="st26" d="M123.1,212.9c-0.8-0.6-1.7-0.4-2.6-0.4c-7.8,0-15.5,0-23.3,0c0-0.9,0-1.8,0-2.7c8.2,0,16.5,0,24.7,0
		C122.7,210.7,123,211.8,123.1,212.9z"/>
	<path class="st27" d="M204.4,304c0-0.7-0.1-1.4-1.1-1.4c-4.4,0-8.8,0.1-13.2,0.1c-0.2,0-0.3,0.3-0.5,0.4c-0.9-1.3-1.7-2.5-1.8-4.2
		c0-1,0.8-1.1,1.4-1.1c5-0.1,10-0.4,15,0.2C204.9,300,205,302,204.4,304z"/>
	<path class="st12" d="M187.4,296.8c-0.7-2.4-0.4-4.8,0.9-7c3.7-0.4,7.4-0.4,11.2,0c1.5,1.2,2.6,2.9,3.4,4.7
		c-0.5,1.2-1.7,1.1-2.7,1.1c-3,0.1-6,0.1-9,0C189.7,295.5,188.4,295.7,187.4,296.8z"/>
	<path class="st28" d="M222.3,296.8c-0.4,3.8-3,5.4-6.5,4.1c-2.7-1-4.6-3.1-5.9-5.6c0-1.3,0.9-1.5,1.8-1.6c3-0.2,5.9-0.2,8.9,0
		C222.8,293.8,222.6,295.3,222.3,296.8z"/>
	<path class="st29" d="M130.7,269.7c0.8-0.6,1.7-0.4,2.6-0.4c4.5,0,9,0,13.4,0c0.9,0,1.8,0,2.6-0.5c0.9,0.9,1.6,1.9,1.9,3.2
		c-0.5,1.1-1.5,1.2-2.5,1.2c-5.5,0.1-11,0.1-16.6,0c-0.8,0-1.5-0.1-2.1-0.7C130,271.4,130.2,270.5,130.7,269.7z"/>
	<path class="st30" d="M218,284.8c1.3,1.5,2.8,3,3.3,5c-0.4,0.9-1.3,1.1-2.1,1.1c-3.7,0-7.5,0.3-11.2-0.1c-0.6-1.9-0.7-3.7-0.1-5.6
		C211.2,284,214.6,284.6,218,284.8z"/>
	<path class="st31" d="M106.2,186.5c6.1,0,12.1,0,18.2,0c0.9,0,1.8,0,2.4,0.9c0.1,0.8,0.3,1.6-0.2,2.3c-5.3,0-10.7,0-16,0
		c-0.7,0-1.6-0.2-2.1,0.6C107.4,189.2,106.6,188,106.2,186.5z"/>
	<path class="st32" d="M160.8,298.5c5.4,0,10.8,0,16.2,0c0.8,0,1.9-0.5,2.2,0.9c0.1,1-0.2,1.9-0.8,2.8c-0.8,0.3-1.5,0.7-2.4,0.7
		c-4.1,0-8.3,0.2-12.4-0.2C162.3,301.5,161.3,300.2,160.8,298.5z"/>
	<path class="st33" d="M232.6,279.3c0.1,0.5,0.2,0.9,0.2,1.4c0,1.9,0.2,3.9-1.8,5c-2.1,1.1-3.9,0.1-5.5-1.1c-2-1.4-3.5-3.3-4.2-5.7
		c1.2-1.1,2.7-0.6,4.1-0.7c1.6-0.1,3.3-0.1,4.9,0C231.3,278.2,232.2,278.3,232.6,279.3z"/>
	<path class="st34" d="M105.3,180.5c0.6-3.3,3.6-5.1,7.9-4.8c3.7,0.3,6.9,1.7,9.5,4.4c-0.7,0.9-1.8,1.1-2.9,1.1
		c-4.2,0.1-8.3,0.1-12.5,0C106.6,181.2,105.9,181.1,105.3,180.5z"/>
	<path class="st35" d="M132.3,283.4c6.8,0,13.5,0,20.3,0c-0.2,1.4-0.8,2.7-1.8,3.7c-4.1,0.3-8.2,0.1-12.2,0.2c-1,0-2,0.1-2.9,0.3
		C134.2,286.5,133,285.2,132.3,283.4z"/>
	<path class="st15" d="M187.4,296.8c-0.2-1.5,0.5-2,2-1.9c3.7,0.1,7.4,0,11.1,0c0.8,0,1.7,0.1,2.4-0.4c0.7,1.1,1.2,2.3,1.4,3.7
		c-1,0.7-2.1,0.4-3.1,0.4c-3.7,0-7.3,0-11,0c-0.8,0-1.7-0.3-2.3,0.5C187.3,298.3,187.3,297.5,187.4,296.8z"/>
	<path class="st30" d="M159.5,287.1c1.2-0.9,2.5,0.1,3.7,0.1c4.2-0.2,8.5,0.3,12.7-0.5c1.1,1.2,1.8,2.6,2.2,4.1
		c-0.8-0.5-1.7-0.5-2.6-0.5c-5.5,0-11,0-16.6,0C158.9,289.1,159,288.1,159.5,287.1z"/>
	<path class="st36" d="M235,261c0.7,1.5,1.2,2.9,1.1,4.6c-0.2,2.5-1.9,3.7-4.3,2.8c-3-1.2-4.9-3.4-5.9-6.5c-0.4-0.9,0.2-1.3,0.9-1.4
		C229.5,260.3,232.3,259.7,235,261z"/>
	<path class="st12" d="M208,290.8c0.8-0.9,1.8-0.5,2.8-0.5c3.5-0.3,7.1,0.5,10.5-0.5c1.1,2.2,1.8,4.5,1,7c0.3-2-0.6-2.6-2.6-2.5
		c-2.5,0.2-5,0-7.5,0c-0.9,0-1.9-0.1-2.3,0.9C208.8,294,208.1,292.5,208,290.8z"/>
	<path class="st37" d="M122.3,172.3c5.5,0,11,0,16.5,0c0.7,1.2,0.8,2.4,0,3.7c-0.4,0.4-0.9,0.6-1.4,0.6c-3.6,0.2-7.1,0.2-10.7,0
		c-0.6,0-1.2-0.3-1.7-0.6C123.7,175,122.8,173.8,122.3,172.3z"/>
	<path class="st38" d="M154.8,167.7c0.9,1.5,1.1,3,0,4.6c-3.2,1.2-6.3,1-9.5,0c-1.4-0.8-2.5-1.8-3.3-3.3c-0.5-0.9-0.2-1.7,0.7-1.7
		C146.8,167,150.9,166.2,154.8,167.7z"/>
	<path class="st39" d="M163.5,302.7c0.5-0.7,1.2-0.5,1.9-0.5c4.3,0,8.6,0,13,0C175,308.7,168.8,308.9,163.5,302.7z"/>
	<path class="st40" d="M135.6,287.6c0.1-0.6,0.4-1,1-1c4.5,0,8.9,0,13.4,0.1c0.2,0,0.5,0.3,0.7,0.5c-3,4.3-7.7,5.2-12.5,2.5
		C137.3,289.1,136.3,288.5,135.6,287.6z"/>
	<path class="st41" d="M130.2,272.4c6.1,0,12.2,0,18.3,0c1,0,2,0,2.9-0.5c0.6,0.8,1,1.8,1.2,2.8c-1.2,0.8-2.6,0.7-4,0.7
		c-5,0-10,0.1-15,0c-1.1,0-2.3,0.2-3.4,0.3C129.7,274.6,129.9,273.5,130.2,272.4z"/>
	<path class="st42" d="M170.5,167.6c1.4,1.2,2.3,2.7,2.6,4.6c-3.5,1.2-7,1.1-10.5,0c-1.4-1.2-2.1-2.8-2.1-4.6
		C163.8,166.4,167.2,166.6,170.5,167.6z"/>
	<path class="st43" d="M232.6,279.3c-2.6-1-5.3-0.2-7.9-0.4c-1.1-0.1-2.3,0-3.4,0c-0.7-1.1-1-2.3-1-3.6c-0.1-1,0.7-1.1,1.4-1.1
		c2.9-0.1,5.8-0.4,8.7,0.1C231.7,275.7,232.4,277.4,232.6,279.3z"/>
	<path class="st44" d="M105.3,180.5c4.7,0,9.4,0,14.1,0c1.1,0,2.2-0.3,3.3-0.4c1.1,0.6,1.8,1.6,2.4,2.7c-5.8,0-11.6,0-17.4,0
		c-0.8,0-1.7-0.3-2.3,0.5C104.9,182.3,104.8,181.4,105.3,180.5z"/>
	<path class="st45" d="M266.7,201.4c-1.1,0-2.4,0-3.7,0c0.8-5.1,0.5-10.2,0.2-15.4c0.9-0.1,2.2,0.6,3.5-0.2
		C265.9,191.2,265.9,196.3,266.7,201.4z"/>
	<path class="st46" d="M140.7,165.4c-0.1-3.5,2.6-5.5,6.4-4.4c2.6,0.7,4.9,2,6.4,4.4c-0.4,0.5-1,0.6-1.6,0.7c-3.2,0.1-6.3,0.1-9.5,0
		C141.7,166,141.2,165.8,140.7,165.4z"/>
	<path class="st47" d="M235,261c-2.4,0-4.9,0-7.3,0c-0.7,0-1.6-0.2-1.8,0.9c-0.7-0.7-0.7-1.7-0.8-2.6c-0.1-1.4,0.2-2.7,1.4-3.7
		c1.3-1,2.4-0.4,3.6,0.2C232.4,256.9,234,258.6,235,261z"/>
	<path class="st48" d="M135.2,167.1c-0.6,0.9-1.5,0.6-2.3,0.6c-3,0-6,0-9.1,0c-0.8,0-1.7-0.1-2.4,0.4c0.7-2.9,2.4-4.4,5.4-4.5
		C130.1,163.6,133,164.6,135.2,167.1z"/>
	<path class="st49" d="M130.1,275.7c0.2-1.4,1.4-1,2.2-1c5.6,0,11.3,0,16.9,0c1.1,0,2.2,0,3.4,0c0.2,0.6,0.3,1.2,0.5,1.8
		c-7.6,0-15.2,0-22.8,0C130.1,276.3,130.1,276,130.1,275.7z"/>
	<path class="st50" d="M230.4,274.3c-2.4,0.9-5,0.2-7.5,0.4c-0.9,0.1-1.9-0.3-2.6,0.5c-0.3-1.9-0.2-3.8,1.7-5c2-1.2,3.8-0.3,5.4,0.9
		C228.6,272.1,229.7,272.9,230.4,274.3z"/>
	<path class="st51" d="M194.7,189.3c-0.1-0.1-0.3-0.2-0.3-0.3c-0.7-1.6-1.7-3.4-0.1-4.8c1.6-1.4,3.5-0.6,5.1,0.4
		c1.6,1,3,2.3,3.6,4.2C200.3,190,197.4,189.3,194.7,189.3z"/>
	<path class="st52" d="M125,175.9c4.6,0,9.2,0,13.8,0c-1.3,3-4,4.3-7.5,3.5C128.9,178.9,126.7,177.8,125,175.9z"/>
	<path class="st53" d="M194.7,189.3c1.7-1.2,3.7-0.3,5.5-0.5c0.9-0.1,1.8,0,2.7,0c0.9,1.4,1.2,2.9,0,4.2c-1.3,1.4-2.8,0.8-4.2,0.1
		C197,192.2,195.4,191.2,194.7,189.3z"/>
	<path class="st54" d="M207.1,202.5c-1.6-2.3-1.9-4.5-0.8-5.6c1.2-1.1,3.6-0.6,5.5,1.1c1.1,1,2.1,2,2.5,3.4c-1,0.9-2.3,0.6-3.5,0.6
		C209.6,202.2,208.3,202.4,207.1,202.5z"/>
	<path class="st55" d="M140.7,165.4c4.3,0,8.5,0,12.8,0c0.7,0.6,1.2,1.4,1.4,2.3c-3.6,0-7.3,0-10.9,0c-0.9,0-1.9-0.2-1.8,1.3
		C141.2,167.9,140.6,166.8,140.7,165.4z"/>
	<path class="st56" d="M180,179.6c-1-1-1.8-2.2-1.9-3.6c3-1.2,6.1-1.1,9.1,0c0.7,0.8,1.4,1.6,1.6,2.7c0.1,0.9-0.6,1.1-1.1,1.1
		C185.1,179.8,182.6,180.2,180,179.6z"/>
	<path class="st57" d="M256.3,190.1c1.5,0.1,2.6,0.4,3.8-0.1c-0.4,3.7-0.7,7.3,0.1,10.8c0.2,1-0.6,0.7-1,0.7
		c-1.5-0.3-2.1-1.4-2.1-2.9c0-1.8,0-3.6,0-5.5C257.1,192.2,256.9,191.2,256.3,190.1z"/>
	<path class="st58" d="M162.6,172.3c3.5,0,7,0,10.5,0c0,2.7-1,3.7-3.6,3.7C166.5,176,164.3,174.6,162.6,172.3z"/>
	<path class="st40" d="M199.5,289.7c-3.7,0.8-7.4,0.9-11.2,0c1.6-3,4.6-4.1,7.8-2.6C197.3,287.8,198.6,288.6,199.5,289.7z"/>
	<path class="st59" d="M207.1,202.5c0.4-0.9,1.2-1,2.1-1c1.7,0,3.5,0,5.2,0c0.8,1.4,1.1,3-0.2,4.1c-1.3,1.1-2.7,0.4-4-0.3
		C208.9,204.7,207.6,204,207.1,202.5z"/>
	<path class="st60" d="M187.3,175.9c-3,0-6.1,0-9.1,0c-0.5-2.7,0.9-4.2,3.6-3.8C184.1,172.5,186,173.8,187.3,175.9z"/>
	<path class="st61" d="M180,179.6c2-0.7,4.2-0.4,6.3-0.5c0.9,0,1.8,0.3,2.5-0.5c0.9,3.3-0.8,5-4,4.2
		C182.8,182.3,181.3,181.2,180,179.6z"/>
	<path class="st62" d="M170.5,167.6c-3.4,0-6.7,0-10.1,0c0.3-2.7,2-4,4.7-3.5C167.3,164.7,169.2,165.7,170.5,167.6z"/>
	<path class="st63" d="M218,284.8c-3.3,0.9-6.7,0.2-10,0.4c1.3-3.5,3.7-4.4,7.1-2.7C216.2,283,217.3,283.7,218,284.8z"/>
	<path class="st64" d="M145.3,172.2c3.2,0,6.3,0,9.5,0c-1.7,2.2-4,2.7-7,1.5C146.9,173.4,146,173,145.3,172.2z"/>
	<path class="st65" d="M257,187.5c0-0.8,0.6-1,1.2-1c0.7,0,1.5-0.1,1.5,0.8c0,0.8-0.5,1.4-1.4,1.4
		C257.6,188.7,257.2,188.2,257,187.5z"/>
	<path class="st66" d="M110.1,200.6c-1.4,0-2.9,0-4.3,0C107.2,200.1,108.7,200,110.1,200.6z"/>
</g>
</svg>
